<svg width="107" height="44" fill="none" xmlns="http://www.w3.org/2000/svg"><g clip-path="url(#clip0_103_425)" fill="#fff"><path d="M79.648 42.948V22.936h5.665v20.012h3.889V1.216h-3.889V19.65h-5.665V1.216H75.76v41.732h3.888zm-57.624 0V4.502h6.067V1.216h-9.956v41.732h3.89zm41.961-17.193l6.577 2.108c.234-.845.425-1.711.552-2.577l-6.885-.71c-.064.397-.149.783-.244 1.18zM62.86 28.74l5.984 3.4a20.51 20.51 0 001.092-2.41l-6.577-2.106c-.16.386-.319.75-.499 1.116zm-1.74 2.68l5.135 4.56a20.469 20.469 0 001.57-2.129l-5.983-3.4c-.223.333-.467.657-.722.97zm-2.25 2.275l4.064 5.508a22.47 22.47 0 001.984-1.763l-5.145-4.559c-.287.292-.595.563-.902.814zm-2.694 1.763l2.822 6.227a22.56 22.56 0 002.313-1.314l-4.074-5.518c-.34.219-.69.417-1.06.605zm-1.825.813a14.74 14.74 0 01-1.167.365l1.443 6.677c.86-.22 1.719-.49 2.546-.814l-2.822-6.228zM40.74 34.852l-4.074 5.518c.742.48 1.517.928 2.313 1.314l2.822-6.227a15.363 15.363 0 01-1.061-.605zm-2.536-1.961l-5.145 4.558c.625.626 1.294 1.22 1.983 1.763l4.064-5.508c-.308-.26-.605-.532-.902-.813zm-2.069-2.441l-5.983 3.4a20.57 20.57 0 001.58 2.128l5.135-4.558a10.81 10.81 0 01-.732-.97zm-1.506-2.817L28.05 29.74c.308.814.679 1.628 1.093 2.41l5.983-3.4c-.18-.376-.35-.741-.498-1.117zm-.88-3.067l-6.886.71a22.7 22.7 0 00.551 2.576l6.578-2.107a19.47 19.47 0 01-.244-1.179zm-.213-3.171l-6.886-.71A18.47 18.47 0 0026.608 22c0 .428.01.876.043 1.314l6.885-.709c-.01-.198-.01-.396-.01-.605 0-.209.01-.407.01-.605zm.467-3.15l-6.578-2.108a21.686 21.686 0 00-.552 2.577l6.886.71c.063-.397.138-.793.244-1.18zm1.124-2.984l-5.983-3.4a20.534 20.534 0 00-1.093 2.41l6.578 2.107c.148-.386.318-.752.498-1.117zm1.73-2.68l-5.135-4.56a24.171 24.171 0 00-1.581 2.129l5.984 3.4c.233-.333.477-.657.732-.97zm2.26-2.285l-4.064-5.508a22.448 22.448 0 00-1.984 1.763l5.146 4.559c.286-.282.583-.553.901-.814zM41.8 8.533l-2.823-6.228c-.795.397-1.58.835-2.312 1.325l4.063 5.518c.36-.219.71-.427 1.072-.615zm1.835-.803a14.74 14.74 0 011.167-.365L43.36.689c-.86.219-1.719.5-2.546.813l2.822 6.228zm-.276 35.582l1.443-6.677c-.393-.104-.785-.23-1.167-.365l-2.822 6.228a21.86 21.86 0 002.546.814zm3.406-36.365c.403-.052.806-.093 1.22-.125V0a25.3 25.3 0 00-2.663.271l1.443 6.676zm-1.443 36.771c.87.146 1.772.23 2.663.272v-6.833c-.414-.02-.817-.063-1.22-.125l-1.443 6.686zm5.888-36.77L52.654.27A20.689 20.689 0 0049.99 0v6.822c.414.032.817.073 1.22.125zM49.991 44a25.005 25.005 0 002.663-.271l-1.443-6.676a22.78 22.78 0 01-1.22.125V44zm4.36-36.27l2.822-6.228A21.863 21.863 0 0054.627.69l-1.443 6.676c.393.104.775.23 1.167.365zm2.886 1.408l4.074-5.508a23.985 23.985 0 00-2.313-1.325l-2.822 6.228c.36.188.721.396 1.061.605zm2.546 1.972l5.135-4.559a22.463 22.463 0 00-1.984-1.763l-4.063 5.508c.307.26.615.532.912.814zm2.07 2.44l5.983-3.4a22.135 22.135 0 00-1.57-2.128L61.13 12.58c.244.313.488.637.721.97zm1.506 2.817l6.577-2.107a21.321 21.321 0 00-1.092-2.41l-5.995 3.4c.191.376.35.742.51 1.117zm.87 3.056l6.885-.709a20.6 20.6 0 00-.552-2.576l-6.577 2.107c.095.386.18.782.244 1.178zM71.358 22c0-.428-.01-.876-.042-1.314l-6.886.709c.01.198.01.396.01.605 0 .209-.01.407-.01.605l6.886.71c.031-.45.042-.887.042-1.315zM3.889 36.475V8.018c0-2.76.972-4.174 2.95-4.174 1.877 0 2.815 1.48 2.815 4.404v27.865c0 2.662-1.039 3.977-3.05 3.977-1.81 0-2.715-1.216-2.715-3.615zm7.777 5.29c1.274-1.018 1.877-2.53 1.877-4.534V7.919c0-4.732-2.246-7.098-6.772-7.098-2.346 0-4.09.559-5.162 1.71C.536 3.646 0 5.42 0 7.787v28.687c0 2.169.603 3.844 1.777 5.027C2.95 42.685 4.626 43.31 6.77 43.31c2.012-.033 3.654-.526 4.895-1.545zM97.65 22.64h1.877c.972 0 1.743.198 2.246.56.503.36.771 1.05.771 2.037v11.796c0 1.02-.268 1.676-.771 2.038-.503.361-1.274.558-2.246.558H97.65V22.641zm2.28 20.308c2.48 0 4.189-.46 5.094-1.38.939-.92 1.375-2.596 1.375-4.962V25.73c0-2.398-.469-4.041-1.375-4.961-.938-.92-2.614-1.38-5.095-1.38h-2.313V1.215h-3.888v41.732h6.201z"/></g><defs><clipPath id="clip0_103_425"><path fill="#fff" d="M0 0h106.432v44H0z"/></clipPath></defs></svg>