<svg width="130" height="68" fill="none" xmlns="http://www.w3.org/2000/svg"><g clip-path="url(#clip0_102_65)"><path d="M97.292 53.485V28.576h6.911v24.91h4.75V1.506h-4.75v22.966h-6.91V1.508h-4.751v51.978h4.75zm-70.332 0V5.615h7.415V1.508h-12.17v51.978h4.755z" fill="#F29400"/><path d="M79.128 29.539l8.349 1.324c.108-.871.183-1.76.206-2.642h-8.458a18.53 18.53 0 01-.097 1.318zm-.562 2.922l8.04 2.608c.246-.843.452-1.708.618-2.573l-8.343-1.324a27.84 27.84 0 01-.315 1.29zm-1.026 2.797l7.53 3.839c.378-.797.716-1.616 1.014-2.447l-8.04-2.613c-.16.413-.326.825-.504 1.22zm-1.426 2.607l6.813 4.95a26.45 26.45 0 001.386-2.251l-7.517-3.828c-.224.407-.453.78-.682 1.129zm-1.851 2.332l5.97 5.97a27.633 27.633 0 001.72-2.01l-6.83-4.963c-.264.333-.55.665-.86 1.003zm-2.172 2.034l4.962 6.83a28.482 28.482 0 002.012-1.718l-5.971-5.971c-.332.303-.67.596-1.003.86zm-2.464 1.673l3.828 7.518a27.99 27.99 0 002.252-1.386l-4.951-6.82c-.344.23-.716.46-1.129.688zm-2.699 1.244l2.613 8.04a28.284 28.284 0 002.447-1.015l-3.84-7.535a17.62 17.62 0 01-1.22.51zm-1.576.521c-.452.126-.876.23-1.283.31l1.318 8.343a28.54 28.54 0 002.578-.619l-2.613-8.034zm-12.927-1.025l-3.833 7.53c.79.371 1.61.71 2.447 1.013l2.612-8.04a18.23 18.23 0 01-1.226-.503zm-2.607-1.427l-4.95 6.819c.733.504 1.489.968 2.257 1.386l3.828-7.518a15.18 15.18 0 01-1.135-.687zm-2.332-1.845l-5.977 5.965a27.84 27.84 0 002.011 1.719l4.963-6.83a18.13 18.13 0 01-.997-.854zm-2.034-2.178l-6.83 4.963a29.33 29.33 0 001.718 2.01l5.971-5.97a17.34 17.34 0 01-.86-1.003zm-1.68-2.458l-7.517 3.828c.43.773.894 1.53 1.392 2.252l6.819-4.951a21.38 21.38 0 01-.693-1.129zm-1.243-2.705l-8.04 2.613a26.51 26.51 0 001.015 2.447l7.535-3.84c-.183-.389-.35-.801-.51-1.22zm-.83-2.853L33.354 32.5c.16.86.367 1.725.62 2.573l8.038-2.607a21.753 21.753 0 01-.315-1.29zm-.35-2.957H32.89c.029.883.098 1.77.206 2.642l8.35-1.324a22.94 22.94 0 01-.098-1.318zm.097-2.974l-8.349-1.324c-.114.871-.177 1.76-.206 2.642h8.458c.023-.458.051-.894.097-1.318zm.568-2.922l-8.04-2.613a26.151 26.151 0 00-.619 2.578l8.343 1.318c.086-.412.19-.83.316-1.283zm1.025-2.797l-7.535-3.839a26.825 26.825 0 00-1.014 2.447l8.04 2.613c.16-.418.332-.825.51-1.22zm1.427-2.607l-6.819-4.95a27.312 27.312 0 00-1.392 2.251l7.518 3.828c.24-.418.47-.79.693-1.129zm1.845-2.332l-5.97-5.97a29.128 29.128 0 00-1.72 2.01l6.83 4.963c.276-.344.562-.682.86-1.003zm2.172-2.034l-4.957-6.83a27.292 27.292 0 00-2.011 1.724l5.97 5.971c.339-.315.671-.596.998-.865zm2.464-1.673l-3.828-7.518a27.53 27.53 0 00-2.258 1.392l4.951 6.819c.35-.235.722-.464 1.135-.693zm2.699-1.244l-2.613-8.045a28.16 28.16 0 00-2.441 1.014l3.833 7.53a24.07 24.07 0 011.22-.499zm1.575-.521c.465-.126.889-.23 1.284-.31L55.181.464c-.86.16-1.724.373-2.572.619l2.612 8.034zm-.04 45.205l1.324-8.343c-.401-.08-.825-.184-1.284-.31l-2.612 8.034c.853.252 1.719.458 2.572.619zm2.963-45.767c.418-.046.854-.08 1.318-.097V0a27.17 27.17 0 00-2.642.206l1.324 8.35zM56.82 54.58c.877.109 1.76.177 2.642.206v-8.458a18.02 18.02 0 01-1.318-.097L56.82 54.58zm5.616-46.025L63.759.206A25.62 25.62 0 0061.118 0v8.458c.458.017.894.051 1.318.097zm-1.324 46.231c.883-.029 1.77-.097 2.642-.206l-1.324-8.35c-.418.047-.854.081-1.318.098v8.458zm4.24-45.67l2.613-8.033a25.923 25.923 0 00-2.578-.619l-1.318 8.343c.407.08.83.184 1.283.31zm2.797 1.026l3.839-7.535a28.55 28.55 0 00-2.447-1.014l-2.613 8.04c.413.16.825.326 1.22.51zm2.613 1.427l4.95-6.819a28.055 28.055 0 00-2.251-1.392l-3.828 7.518c.407.235.78.464 1.129.693zm2.332 1.845l5.97-5.965a30.396 30.396 0 00-2.01-1.725l-4.963 6.83c.332.264.665.55 1.003.86zm2.028 2.178l6.83-4.963a27.836 27.836 0 00-1.718-2.01l-5.971 5.97c.303.327.596.665.86 1.003zm1.68 2.458l7.517-3.828a29.738 29.738 0 00-1.386-2.252l-6.814 4.951c.224.35.453.722.682 1.129zm1.243 2.705l8.04-2.613a27.827 27.827 0 00-1.015-2.447l-7.53 3.84c.178.389.344.796.505 1.22zm.83 2.853l8.344-1.318a28.602 28.602 0 00-.62-2.578l-8.039 2.613c.126.447.23.87.316 1.283zm.35 2.957h8.458a27.031 27.031 0 00-.207-2.642l-8.348 1.324c.046.424.08.86.097 1.318z" fill="#E53517"/><path d="M4.808 45.417V10.005c0-3.455 1.197-5.18 3.598-5.18 2.304 0 3.455 1.822 3.455 5.472v34.685c0 3.312-1.249 4.968-3.741 4.968-2.212 0-3.312-1.513-3.312-4.533zm9.5 6.584c1.536-1.272 2.304-3.151 2.304-5.65V9.861c0-5.901-2.762-8.852-8.28-8.852-2.877 0-4.98.71-6.298 2.125C.716 4.55.057 6.744.057 9.718v35.7c0 2.687.722 4.772 2.16 6.262 1.439 1.49 3.479 2.23 6.12 2.23 2.441 0 4.436-.637 5.971-1.909zm104.965-23.78h2.304c1.197 0 2.108.23 2.733.682.625.458.934 1.306.934 2.556v14.686c0 1.25-.315 2.103-.934 2.556-.625.458-1.536.681-2.733.681h-2.304V28.221zm2.808 25.264c3.025 0 5.1-.573 6.229-1.724 1.128-1.152 1.69-3.215 1.69-6.195V32.037c0-2.974-.567-5.042-1.69-6.194-1.129-1.152-3.204-1.725-6.229-1.725h-2.808V1.513h-4.75V53.49h7.558v-.006z" fill="#F29400"/><path d="M126.803 64.006h1.025c.264 0 .464.074.613.223.149.15.218.356.218.625 0 .264-.069.458-.212.596-.143.132-.338.2-.59.2h-1.06v-1.644h.006zm0-3.192h-1.244v5.793h2.029c.521 0 .911-.034 1.163-.103.389-.109.687-.303.894-.584.206-.281.309-.642.309-1.066 0-.705-.241-1.215-.728-1.524-.292-.19-.722-.281-1.277-.281h-1.146v-2.235zm-6.006 5.793V64.08h2.206v2.527h1.244v-5.793h-1.244v2.31h-2.206v-2.31h-1.243v5.793h1.243zm-2.349 0v-.962h-2.728V64.08h2.47v-.945h-2.47v-1.37h2.642v-.945h-3.885v5.793h3.971v-.006zm-8.727-.962c.229-.407.401-.917.51-1.536.109-.619.166-1.215.166-1.794v-.561h1.295v3.89h-1.971zm3.782 0h-.567v-4.83h-3.782v.715c0 .43-.006.785-.017 1.066-.012.287-.046.613-.098.997a5.36 5.36 0 01-.705 2.057h-.407v2.178h1.244v-1.21h3.088v1.21h1.244v-2.183zm-10.148-3.152h.023v4.114h1.186v-5.793h-1.341l-2.143 4.103h-.023v-4.103h-1.186v5.793h1.324l2.16-4.114zm-.487-3.427c-.058.384-.27.58-.625.58-.367 0-.584-.196-.642-.58h-.555c.022.379.131.677.338.877.2.206.487.31.859.31.367 0 .648-.104.848-.316.201-.206.31-.498.333-.876h-.556v.005zm-9.243 4.94h1.026c.263 0 .464.074.613.223.149.15.218.356.218.625 0 .264-.07.458-.213.596-.143.132-.338.2-.59.2h-1.06v-1.644h.006zm0-3.192h-1.243v5.793h2.028c.522 0 .911-.034 1.163-.103.39-.109.688-.303.894-.584.206-.281.31-.642.31-1.066 0-.705-.247-1.215-.734-1.524-.292-.19-.716-.281-1.278-.281H93.62v-2.235h.006zm3.684 5.793h1.244v-5.793H97.31v5.793zm-9.643-.962c.229-.407.4-.917.51-1.536.108-.619.166-1.215.166-1.794v-.561h1.295v3.89h-1.971zm3.776 0h-.567v-4.83h-3.782v.715c0 .43-.006.785-.023 1.066-.012.287-.046.613-.098.997-.051.378-.131.74-.246 1.078a5.043 5.043 0 01-.453.98h-.407v2.177h1.244v-1.21h3.088v1.21h1.244v-2.183zm-8.555-2.24l2.126-2.59h-1.439l-1.925 2.503h-.017v-2.504h-1.204v2.504h-.017l-1.925-2.504h-1.438l2.126 2.59-2.31 3.203H78.4l2.011-2.95h.017v2.95h1.204v-2.95h.017l2.011 2.95h1.536l-2.31-3.203zm-10.338 1.013l.86-2.464.802 2.464H72.55zm-1.942 2.19h1.186l.436-1.25h2.297l.419 1.25H76.2l-2.017-5.794h-1.479l-2.097 5.793zm-4.183 0v-2.946l2.028 2.945H70l-2.31-3.191 2.126-2.602h-1.455l-1.943 2.51v-2.51h-1.243v5.793h1.249zm-8.315-2.19l.86-2.464.802 2.464H58.11zm-1.942 2.19h1.186l.436-1.25h2.297l.419 1.25h1.249l-2.011-5.794h-1.479l-2.097 5.793zm-4.326 0V64.08h2.206v2.527h1.243v-5.793h-1.243v2.31H51.84v-2.31h-1.244v5.793h1.244zm-8.332-2.19l.86-2.464.802 2.464h-1.662zm-1.943 2.19h1.187l.435-1.25h2.298l.418 1.25h1.255l-2.017-5.794h-1.478l-2.098 5.793zm-4.177 0v-2.946l2.029 2.945h1.547l-2.31-3.191 2.127-2.602h-1.456l-1.943 2.51v-2.51H36.14v5.793h1.25zm-2.905-5.347c-.401-.378-.922-.567-1.559-.567-.86 0-1.518.28-1.97.854-.453.567-.683 1.329-.683 2.286 0 .917.235 1.627.7 2.143.464.516 1.111.768 1.942.768.928 0 1.581-.338 1.965-1.009.086-.149.144-.292.178-.424.035-.132.063-.326.075-.578h-1.307c-.011.338-.109.607-.298.802-.189.2-.435.298-.74.298-.394 0-.698-.172-.904-.51-.207-.338-.316-.831-.316-1.479 0-.687.115-1.243.35-1.656.235-.412.55-.618.957-.618.27 0 .481.103.647.303.16.2.264.476.293.82h1.266c.006-.58-.195-1.055-.596-1.433zm-6.498 1.232h.023v4.114h1.186v-5.793h-1.34l-2.144 4.103h-.023v-4.103h-1.186v5.793h1.324l2.16-4.114zm-8.263-.733h2.206v4.847h1.244v-5.793H18.48v5.793h1.243V61.76zm-5.982 3.885c.23-.407.401-.917.51-1.536.109-.619.166-1.215.166-1.794v-.561h1.29v3.89H13.74zm3.782 0h-.567v-4.83h-3.782v.715c0 .43-.006.785-.023 1.066-.012.287-.046.613-.098.997-.051.378-.132.74-.246 1.078a5.043 5.043 0 01-.453.98h-.407v2.177h1.244v-1.21h3.088v1.21h1.244v-2.183zm-10.355-2.7c.046-.234.12-.458.224-.675.103-.218.258-.384.464-.51.206-.12.447-.184.74-.184.28 0 .515.063.716.184.2.126.355.286.458.498.103.206.178.424.223.648.046.223.07.47.07.727 0 1.462-.494 2.19-1.48 2.19-.99 0-1.483-.711-1.483-2.127a4 4 0 01.068-.75zm-.636 3.02c.487.522 1.17.78 2.04.78.906 0 1.593-.28 2.075-.848.475-.568.716-1.312.716-2.24 0-.9-.24-1.617-.722-2.155-.481-.539-1.17-.808-2.052-.808-.876 0-1.558.275-2.05.82-.488.544-.734 1.306-.734 2.28-.006.928.24 1.656.727 2.172zM1.243 61.76H3.45v4.847h1.243v-5.793H0v5.793h1.243V61.76z" fill="#E53517"/></g><defs><clipPath id="clip0_102_65"><path fill="#fff" d="M0 0h130v67.822H0z"/></clipPath></defs></svg>